<svg xmlns="http://www.w3.org/2000/svg" xmlns:xlink="http://www.w3.org/1999/xlink" fill="none" version="1.1" width="62.58189010620117" height="50.00001525878906" viewBox="0 0 62.58189010620117 50.00001525878906"><g><path d="M61.3495,8.88536C58.4715,3.36212,51.5862,1.49506,45.012,4.29388C37.5741,-0.786503,27.6534,-1.58718,19.2819,3.12121C11.218,7.63475,6.62312,16.0808,6.53919,24.8103C3.88505,26.5498,1.87783,28.9802,0.82177,31.7825C-0.412633,35.0454,-0.248279,38.5847,1.26588,41.4933C2.82899,44.4941,5.57754,46.4533,9.00799,47.0095C9.6724,47.1158,10.3473,47.1725,11.0362,47.1725C13.0854,47.1725,15.2185,46.6906,17.3411,45.7553C19.4427,47.1866,21.7752,48.292,24.2859,49.0183C26.5449,49.6737,28.8668,49.9996,31.1573,49.9996C35.2871,49.9996,39.354,48.9545,43.0642,46.8607C51.149,42.3649,55.737,33.9295,55.8139,25.1929C58.4576,23.4888,60.4892,21.1754,61.6048,18.5572C62.9895,15.2978,62.9021,11.8649,61.3495,8.88536ZM10.2214,39.311C9.19683,39.1445,8.49045,38.6697,8.06733,37.8549C7.58126,36.9196,7.55679,35.7505,8.00439,34.5672C8.06733,34.4006,8.14077,34.2412,8.2177,34.0783C8.59186,35.0454,9.01849,36.002,9.52204,36.9338C10.3263,37.242,11.9419,37.5077,14.1484,36.1189C16.1137,34.8825,17.9216,32.3635,19.0021,30.6524C16.0892,24.254,18.5335,16.552,24.702,13.1226C26.7337,11.9782,28.9613,11.422,31.1573,11.422C32.8078,11.422,34.4514,11.7338,35.99,12.3325C33.8499,15.1668,31.1468,18.6848,28.5067,22.1142C24.7755,26.9678,20.9184,31.9809,18.4566,35.3253C17.5894,36.5051,16.4424,37.4935,15.138,38.1915C13.3651,39.1409,11.6167,39.5377,10.2214,39.311ZM37.6091,36.8558C34.4794,38.6201,30.8636,39.0134,27.4121,38.0001C27.0555,37.8974,26.7093,37.7734,26.3701,37.6423C28.685,34.5636,31.6679,30.6842,34.5738,26.9076C38.1791,22.2205,41.5816,17.7955,43.8895,14.6778C44.7183,13.5583,46.103,12.4104,47.4179,11.7444C50.4567,10.2139,53.5199,10.5469,54.548,12.5203C55.1145,13.6079,54.8558,14.7204,54.5375,15.4643C54.4431,15.684,54.3277,15.8966,54.2018,16.1091C53.8137,15.0711,53.3556,14.0472,52.8206,13.0446C52.0827,12.8427,50.4881,12.7116,48.2012,14.15C46.1695,15.4289,44.4525,18.0577,43.4943,19.7547C46.0821,26.068,43.6377,33.4795,37.6091,36.8558Z" fill="#FE6726" fill-opacity="1"/></g></svg>