<svg xmlns="http://www.w3.org/2000/svg" xmlns:xlink="http://www.w3.org/1999/xlink" fill="none" version="1.1" width="200" height="50.0003662109375" viewBox="0 0 200 50.0003662109375"><g><g><g><path d="M61.3495,8.8857262109375C58.4715,3.3624862109375,51.5862,1.4954262109375,45.012,4.2942462109375C37.5741,-0.7861367890625,27.6534,-1.5868137890625,19.2819,3.1215762109375C11.218,7.6351162109375,6.62312,16.0811662109375,6.53919,24.8106662109375C3.88505,26.5501662109375,1.87783,28.9805662109375,0.82177,31.7828662109375C-0.412633,35.0457662109375,-0.248279,38.5850662109375,1.26588,41.4936662109375C2.82899,44.4944662109375,5.57754,46.4536662109375,9.00799,47.0098662109375C9.6724,47.1161662109375,10.3473,47.1728662109375,11.0362,47.1728662109375C13.0854,47.1728662109375,15.2185,46.6909662109375,17.3411,45.7556662109375C19.4427,47.1869662109375,21.7752,48.2923662109375,24.2859,49.0186662109375C26.5449,49.6740662109375,28.8668,49.9999662109375,31.1573,49.9999662109375C35.2871,49.9999662109375,39.354,48.9548662109375,43.0642,46.8610662109375C51.149,42.3652662109375,55.737,33.9298662109375,55.8139,25.1932662109375C58.4576,23.4891662109375,60.4892,21.1757662109375,61.6048,18.5575662109375C62.9895,15.2981662109375,62.9021,11.8652662109375,61.3495,8.8857262109375ZM10.2214,39.3113662109375C9.19683,39.1448662109375,8.49045,38.6700662109375,8.06733,37.8552662109375C7.58126,36.9199662109375,7.55679,35.7508662109375,8.00439,34.5675662109375C8.06733,34.4009662109375,8.14077,34.2415662109375,8.2177,34.0786662109375C8.59186,35.0457662109375,9.01849,36.0023662109375,9.52204,36.9341662109375C10.3263,37.2423662109375,11.9419,37.5080662109375,14.1484,36.1192662109375C16.1137,34.8828662109375,17.9216,32.3638662109375,19.0021,30.6527662109375C16.0892,24.2543662109375,18.5335,16.5523662109375,24.702,13.1229662109375C26.7337,11.9785662109375,28.9613,11.4223662109375,31.1573,11.4223662109375C32.8078,11.4223662109375,34.4514,11.7341662109375,35.99,12.3328662109375C33.8499,15.1671662109375,31.1468,18.6851662109375,28.5067,22.1145662109375C24.7755,26.9681662109375,20.9184,31.9812662109375,18.4566,35.3256662109375C17.5894,36.5054662109375,16.4424,37.4938662109375,15.138,38.1918662109375C13.3651,39.1412662109375,11.6167,39.5380662109375,10.2214,39.3113662109375ZM37.6091,36.8561662109375C34.4794,38.6204662109375,30.8636,39.0137662109375,27.4121,38.0004662109375C27.0555,37.8977662109375,26.7093,37.7737662109375,26.3701,37.6426662109375C28.685,34.5639662109375,31.6679,30.6845662109375,34.5738,26.9079662109375C38.1791,22.2208662109375,41.5816,17.7958662109375,43.8895,14.6781662109375C44.7183,13.5586662109375,46.103,12.4107662109375,47.4179,11.7447662109375C50.4567,10.2142662109375,53.5199,10.5472662109375,54.548,12.5206662109375C55.1145,13.6082662109375,54.8558,14.7207662109375,54.5375,15.4646662109375C54.4431,15.6843662109375,54.3277,15.8969662109375,54.2018,16.1094662109375C53.8137,15.0714662109375,53.3556,14.0475662109375,52.8206,13.0449662109375C52.0827,12.8430662109375,50.4881,12.7119662109375,48.2012,14.1503662109375C46.1695,15.4292662109375,44.4525,18.0580662109375,43.4943,19.7550662109375C46.0821,26.0683662109375,43.6377,33.4798662109375,37.6091,36.8561662109375Z" fill="#FE6726" fill-opacity="1"/></g><g><g><path d="M83.46594875,21.43798968383789C84.60942875,20.39994968383789,86.06063875,19.85080968383789,87.57129875,19.88977968383789C89.44916875,19.92875968383789,91.15206875,20.84987968383789,92.25716875,22.36265968383789C92.50886875,22.71693968383789,92.99146875,22.812599683837888,93.37966875000001,22.59648968383789L96.28206875000001,20.94907968383789C96.72616875,20.69399968383789,96.86256875000001,20.12360968383789,96.57226875,19.69492968383789C94.57906875,16.69416968383789,91.32696875,14.86962768383789,87.70417875,14.77042816383789C84.89617875,14.69248598383789,82.20706875,15.712814683837891,80.11592875,17.61529968383789C78.25557675,19.30167968383789,77.61914475,21.93043968383789,78.48987275,24.32182968383789C79.36059875,26.73446968383789,81.56713875,28.34286968383789,84.10587875,28.40316968383789L90.70796874999999,28.55906968383789C91.38636875,28.58026968383789,91.63816875,29.08686968383789,91.71516875,29.30296968383789C91.81306875,29.558069683837893,91.88996875,30.04696968383789,91.44236875,30.46146968383789C90.31986875,31.48186968383789,88.86866875,32.030969683837895,87.33700875,31.99196968383789C85.47665875,31.953069683837892,83.73520875,31.01066968383789,82.63368875,29.50136968383789C82.38191875,29.14716968383789,81.89933875,29.05146968383789,81.52866875,29.24636968383789L78.62625175,30.87606968383789C78.18214465,31.13106968383789,78.04576605,31.70146968383789,78.31502875,32.13016968383789C80.29076875,35.13096968383789,83.64079875,37.01566968383789,87.22161875,37.09366968383789C87.84056875,37.114869683837895,88.45946875,37.07236968383789,89.08196875,36.97676968383789C91.21156875,36.66146968383789,93.22576875,35.72256968383789,94.83086875000001,34.24876968383789C96.69116875,32.562369683837886,97.32766875,29.91236968383789,96.45686875,27.54226968383789C95.56516875,25.129569683837893,93.37966875000001,23.542419683837892,90.84086875,23.48218968383789L84.23876875,23.326299683837888C83.56036875,23.30504968383789,83.30858875,22.798429683837888,83.23165875,22.58231968383789C83.11975875,22.32014968383789,83.02183875,21.83123968383789,83.46594875,21.43798968383789Z" fill="#3F3F3F" fill-opacity="1"/></g><g><path d="M142.7661765625,14.78812026977539C136.6885865625,14.78812026977539,131.7509765625,19.79056026977539,131.7509765625,25.94792026977539C131.7509765625,32.10532026977539,136.6885865625,37.10782026977539,142.7661765625,37.10782026977539C148.8437765625,37.10782026977539,153.7813765625,32.10532026977539,153.7813765625,25.94792026977539C153.7813765625,19.79056026977539,148.84727656249999,14.78812026977539,142.7661765625,14.78812026977539ZM142.7661765625,31.99202026977539C139.4756065625,31.99202026977539,136.7829965625,29.28532026977539,136.7829965625,25.93022026977539C136.7829965625,22.596460269775392,139.4546265625,19.86850026977539,142.7661765625,19.86850026977539C146.0567765625,19.86850026977539,148.7493765625,22.57521026977539,148.7493765625,25.93022026977539C148.7493765625,29.28532026977539,146.0777765625,31.99202026977539,142.7661765625,31.99202026977539Z" fill="#3F3F3F" fill-opacity="1"/></g><g><path d="M108.867494921875,14.78812026977539C102.789904921875,14.78812026977539,97.852294921875,19.79056026977539,97.852294921875,25.94792026977539C97.852294921875,32.10532026977539,102.789904921875,37.10782026977539,108.867494921875,37.10782026977539C114.945094921875,37.10782026977539,119.882694921875,32.10532026977539,119.882694921875,25.94792026977539C119.882694921875,19.79056026977539,114.948594921875,14.78812026977539,108.867494921875,14.78812026977539ZM108.867494921875,31.99202026977539C105.576924921875,31.99202026977539,102.884314921875,29.28532026977539,102.884314921875,25.93022026977539C102.884314921875,22.596460269775392,105.555944921875,19.86850026977539,108.867494921875,19.86850026977539C112.158094921875,19.86850026977539,114.850694921875,22.57521026977539,114.850694921875,25.93022026977539C114.850694921875,29.28532026977539,112.158094921875,31.99202026977539,108.867494921875,31.99202026977539Z" fill="#3F3F3F" fill-opacity="1"/></g><g><path d="M188.984682421875,14.78812026977539C182.907092421875,14.78812026977539,177.969482421875,19.79056026977539,177.969482421875,25.94792026977539C177.969482421875,32.10532026977539,182.907092421875,37.10782026977539,188.984682421875,37.10782026977539C195.062282421875,37.10782026977539,199.999882421875,32.10532026977539,199.999882421875,25.94792026977539C199.999882421875,19.79056026977539,195.06578242187499,14.78812026977539,188.984682421875,14.78812026977539ZM188.984682421875,31.99202026977539C185.694112421875,31.99202026977539,183.001512421875,29.28532026977539,183.001512421875,25.93022026977539C183.001512421875,22.596460269775392,185.673142421875,19.86850026977539,188.984682421875,19.86850026977539C192.275282421875,19.86850026977539,194.967882421875,22.57521026977539,194.967882421875,25.93022026977539C194.967882421875,29.28532026977539,192.278782421875,31.99202026977539,188.984682421875,31.99202026977539Z" fill="#3F3F3F" fill-opacity="1"/></g><g><path d="M176.483185546875,24.65120159790039L176.483185546875,25.95138159790039C176.483185546875,33.54368159790039,171.062985546875,36.994381597900386,166.027485546875,36.994381597900386C160.00935554687499,36.994381597900386,155.127685546875,32.05208159790039,155.127685546875,25.95138159790039C155.127685546875,19.85069159790039,160.026835546875,14.90848159790039,166.027485546875,14.90848159790039C170.367185546875,14.90848159790039,172.727585546875,16.871191597900392,174.392085546875,18.989791597900393C174.489985546875,19.11025159790039,174.598385546875,19.259051597900392,174.717285546875,19.432641597900393C175.045985546875,19.90738159790039,174.899085546875,20.56634159790039,174.399085546875,20.84622159790039L171.556085546875,22.433401597900392C171.097985546875,22.68848159790039,170.527985546875,22.578661597900393,170.195785546875,22.17123159790039L170.188785546875,22.164151597900393C169.045285546875,20.77182159790039,168.038185546875,20.28292159790039,166.314285546875,20.22269159790039C163.083125546875,20.12703159790039,160.334565546875,22.69557159790039,160.334565546875,25.97268159790039C160.334565546875,29.146981597900393,162.869815546875,31.71908159790039,166.006485546875,31.71908159790039C169.153685546875,31.71908159790039,170.325185546875,29.954781597900393,170.748285546875,28.42428159790039L169.318085546875,28.42428159790039C168.852985546875,28.42428159790039,168.464885546875,28.03108159790039,168.464885546875,27.542081597900392L168.464885546875,24.65120159790039C168.464885546875,24.39611159790039,168.569785546875,24.165831597900393,168.741085546875,24.00641159790039C168.842485546875,23.907211597900393,168.968385546875,23.83635159790039,169.111785546875,23.79738159790039C169.181685546875,23.77967159790039,169.258685546875,23.76904159790039,169.335585546875,23.76904159790039L175.608985546875,23.76904159790039C176.095085546875,23.76904159790039,176.483185546875,24.15875159790039,176.483185546875,24.65120159790039Z" fill="#3F3F3F" fill-opacity="1"/></g><g><path d="M126.292392109375,25.95145230102539C126.292392109375,25.93015230102539,126.292392109375,25.89125230102539,126.292392109375,25.87355230102539L126.292392109375,16.18039630102539C126.292392109375,15.70920230102539,125.904252109375,15.31595230102539,125.439152109375,15.31595230102539L122.110117109375,15.31595230102539C121.645035109375,15.31595230102539,121.256874279375,15.709204301025391,121.256874279375,16.18039630102539L121.256874279375,25.83095230102539C121.197422409375,28.165752301025393,121.952752109375,31.49945230102539,124.295672109375,33.933352301025394C125.572042109375,35.26545230102539,127.838032109375,36.85625230102539,131.516762109375,37.07235230102539C131.999362109375,37.11125230102539,132.425962109375,36.70035230102539,132.425962109375,36.20785230102539L132.425962109375,32.83515230102539C132.425962109375,32.385152301025386,132.076262109375,32.00965230102539,131.632162109375,31.97065230102539C130.044562109375,31.83255230102539,128.806672109375,31.304652301025392,127.914962109375,30.383452301025393C126.659562109375,29.06915230102539,126.253922109375,27.184352301025392,126.292392109375,25.95145230102539Z" fill="#3F3F3F" fill-opacity="1"/></g></g></g></g></svg>